<?xml version="1.0" encoding="UTF-8"?>
<!DOCTYPE svg PUBLIC "-//W3C//DTD SVG 1.1//EN" "http://www.w3.org/Graphics/SVG/1.1/DTD/svg11.dtd">
<!-- Creator: CorelDRAW -->
<svg xmlns="http://www.w3.org/2000/svg" xml:space="preserve" width="3.18598in" height="0.512504in" version="1.1" style="shape-rendering:geometricPrecision; text-rendering:geometricPrecision; image-rendering:optimizeQuality; fill-rule:evenodd; clip-rule:evenodd"
viewBox="0 0 3186.46 512.58"
 xmlns:xlink="http://www.w3.org/1999/xlink"
 xmlns:xodm="http://www.corel.com/coreldraw/odm/2003">
 <defs>
  <style type="text/css">
   <![CDATA[
    .fil0 {fill:#FEFEFE;fill-rule:nonzero}
    .fil1 {fill:#0084FF;fill-rule:nonzero}
    .fil2 {fill:#EC1C24;fill-rule:nonzero}
   ]]>
  </style>
 </defs>
 <g id="Layer_x0020_1">
  <metadata id="CorelCorpID_0Corel-Layer"/>
  <g id="_1943550862896">
   <g>
    <polygon class="fil0" points="1290.34,222.95 1290.34,3.13 1429.95,3.13 1429.95,20.84 1309.1,20.84 1309.1,102.1 1426.82,102.1 1426.82,118.77 1309.1,118.77 1309.1,222.95 "/>
    <path class="fil0" d="M1460.16 113.56c0,-64.59 41.67,-113.56 106.27,-113.56 64.59,0 106.27,48.96 106.27,113.56 0,64.59 -42.71,113.56 -106.27,113.56 -63.55,0 -106.27,-50.01 -106.27,-113.56zm193.78 0c0,-55.22 -34.38,-95.85 -86.47,-95.85 -53.13,0 -86.47,40.63 -86.47,95.85 0,55.22 34.38,96.89 86.47,96.89 52.09,-1.04 86.47,-41.67 86.47,-96.89z"/>
    <path class="fil0" d="M1720.61 138.56l0 -135.44 18.75 0 0 134.39c0,44.8 22.92,71.88 66.68,71.88 42.71,0 66.68,-27.09 66.68,-71.88l0 -134.39 18.75 0 0 135.44c0,54.17 -29.17,88.56 -85.43,88.56 -56.26,0 -85.43,-34.38 -85.43,-88.56z"/>
    <path class="fil0" d="M2074.84 222.95l-61.47 -90.64 -47.92 0 0 90.64 -18.75 -0 0 -219.82 82.3 0c37.51,0 66.68,23.96 66.68,64.59 0,39.59 -28.13,61.47 -60.43,63.55l63.55 91.68 -23.96 0zm0 -155.23c0,-28.13 -19.79,-46.88 -48.96,-46.88l-61.47 0 0 94.81 61.47 0c29.17,0 48.97,-19.79 48.97,-47.92z"/>
    <polygon class="fil0" points="2196.73,222.95 2112.34,3.13 2165.47,3.13 2225.9,171.9 2286.33,3.13 2339.46,3.13 2255.07,222.95 "/>
    <polygon class="fil0" points="2360.29,222.95 2360.29,3.13 2407.18,3.13 2407.18,222.95 "/>
    <path class="fil0" d="M2435.31 191.7l26.05 -36.46c15.63,15.63 39.59,30.21 69.8,30.21 26.05,0 38.55,-11.46 38.55,-23.96 0,-38.55 -126.06,-11.46 -126.06,-93.77 0,-36.46 31.26,-66.68 83.35,-66.68 34.38,0 63.55,10.42 85.43,30.21l-26.05 34.38c-17.71,-16.67 -41.67,-23.96 -63.55,-23.96 -19.79,0 -31.26,8.34 -31.26,21.88 0,34.38 126.06,11.46 126.06,92.72 0,40.63 -29.17,70.85 -87.51,70.85 -43.76,-0 -73.97,-14.59 -94.81,-35.43z"/>
    <polygon class="fil0" points="2647.84,222.95 2647.84,3.13 2694.72,3.13 2694.72,222.95 "/>
    <path class="fil0" d="M2728.06 113.56c0,-65.64 47.92,-113.56 114.6,-113.56 65.64,0 114.6,46.88 114.6,113.56 0,65.64 -47.92,113.56 -114.6,113.56 -66.68,0 -114.6,-47.92 -114.6,-113.56zm181.27 0c0,-40.63 -26.05,-71.88 -66.68,-71.88 -40.63,0 -66.68,31.26 -66.68,71.88 0,40.63 26.05,71.88 66.68,71.88 40.63,0 66.68,-31.25 66.68,-71.88z"/>
    <polygon class="fil0" points="3140.62,222.95 3036.44,80.22 3036.44,222.95 2989.55,222.95 2989.55,3.13 3037.48,3.13 3139.58,140.65 3139.58,3.13 3186.46,3.13 3186.46,222.95 "/>
    <polygon class="fil0" points="1475.79,512.58 1475.79,354.22 1414.32,512.58 1393.48,512.58 1332.02,354.22 1332.02,512.58 1285.14,512.58 1285.14,292.75 1350.77,292.75 1403.9,430.27 1457.03,292.75 1522.67,292.75 1522.67,512.58 "/>
    <polygon class="fil0" points="1566.43,512.58 1566.43,292.75 1721.66,292.75 1721.66,333.38 1613.31,333.38 1613.31,379.23 1719.57,379.23 1719.57,419.86 1613.31,419.86 1613.31,469.86 1721.66,469.86 1721.66,510.5 1566.43,510.49 "/>
    <path class="fil0" d="M1758.12 512.58l0 -219.82 86.47 0c68.76,0 116.68,43.76 116.68,109.39 0,66.68 -47.92,109.39 -115.64,109.39l-87.51 0 0 1.04zm155.23 -110.43c0,-38.55 -23.96,-68.76 -68.76,-68.76l-40.63 0 0 137.52 39.59 0c44.8,0 69.8,-31.25 69.8,-68.76z"/>
    <polygon class="fil0" points="1994.61,512.58 1994.61,292.75 2041.5,292.75 2041.5,512.58 "/>
    <path class="fil0" d="M2236.32 512.58l-13.55 -37.51 -93.76 0 -13.55 37.51 -53.13 0 84.39 -219.82 58.34 0 84.39 219.82 -53.13 0zm-61.47 -172.94l-34.38 94.81 68.76 0 -34.38 -94.81z"/>
   </g>
   <g>
    <path class="fil1" d="M1075.73 0c-38.55,0 -71.88,20.84 -90.64,51.05l-125.01 196.9 -7.29 -159.4c-1.04,-65.64 -50.01,-88.56 -94.81,-88.56 -36.46,0 -67.72,19.79 -84.39,48.96l-293.79 463.61 130.23 0 243.79 -374.01c0,0 8.34,320.88 8.34,333.38 0,26.05 21.88,39.59 42.71,39.59l1.04 0c16.67,0 31.26,-9.38 38.55,-23.96 0,0 0,0 0,0l223.99 -350.05 0 374.01 114.6 0 0 -405.27c-2.08,-68.76 -51.05,-106.27 -107.31,-106.27z"/>
    <polygon class="fil2" points="467.31,219.83 467.31,0 587.11,0 "/>
    <path class="fil1" d="M214.14 0l-184.4 290.67c0,0 -46.88,59.38 -22.92,104.18 22.92,43.76 85.43,40.63 85.43,40.63l169.82 0 0 76.05 117.73 0 0 -511.54 -165.65 0zm46.88 332.34l-148.98 0 148.98 -231.29 0 231.29z"/>
   </g>
  </g>
 </g>
</svg>
